<svg width="400" height="400" viewBox="0 0 400 400" fill="none" xmlns="http://www.w3.org/2000/svg">
<path d="M294.459 0H105.541C47.4871 0 0 47.4871 0 105.541V294.459C0 352.513 47.4871 400 105.541 400H294.459C352.513 400 400 352.513 400 294.459V105.541C400 47.4871 352.513 0 294.459 0Z" fill="#0C0D0D"/>
<path d="M200 258.428C167.821 258.428 141.635 232.306 141.635 200.063C141.635 167.82 167.757 141.698 200 141.698V83.3334C135.578 83.3334 83.3335 135.515 83.3335 200C83.3335 264.485 135.515 316.667 200 316.667C264.485 316.667 316.667 264.485 316.667 200H258.302C258.302 232.18 232.243 258.365 199.937 258.365L200 258.428Z" fill="white"/>
</svg>
